<mxfile host="app.diagrams.net" modified="2023-04-12T06:54:53.091Z" agent="Mozilla/5.0 (X11; Linux x86_64; rv:91.0) Gecko/20100101 Firefox/91.0" etag="BGdyJGF7ZjO0pE9FVant" version="21.1.4" type="github">
  <diagram name="第 1 页" id="pCtgnsToikmaQAuae_r1">
    <mxGraphModel dx="1435" dy="764" grid="1" gridSize="10" guides="1" tooltips="1" connect="1" arrows="1" fold="1" page="1" pageScale="1" pageWidth="850" pageHeight="1100" math="0" shadow="0">
      <root>
        <mxCell id="0" />
        <mxCell id="1" parent="0" />
        <mxCell id="iXwxiYTci3UaNsQkCAsQ-6" value="vnode-write" style="ellipse;whiteSpace=wrap;html=1;aspect=fixed;" vertex="1" parent="1">
          <mxGeometry x="1000" y="640" width="80" height="80" as="geometry" />
        </mxCell>
        <mxCell id="iXwxiYTci3UaNsQkCAsQ-7" value="vnode-write" style="ellipse;whiteSpace=wrap;html=1;aspect=fixed;" vertex="1" parent="1">
          <mxGeometry x="1590" y="450" width="80" height="80" as="geometry" />
        </mxCell>
        <mxCell id="iXwxiYTci3UaNsQkCAsQ-8" value="" style="verticalLabelPosition=bottom;verticalAlign=top;html=1;shape=mxgraph.flowchart.parallel_mode;pointerEvents=1" vertex="1" parent="1">
          <mxGeometry x="730" y="420" width="95" height="40" as="geometry" />
        </mxCell>
        <mxCell id="iXwxiYTci3UaNsQkCAsQ-9" value="" style="endArrow=classic;html=1;rounded=0;" edge="1" parent="1" source="iXwxiYTci3UaNsQkCAsQ-16" target="iXwxiYTci3UaNsQkCAsQ-15">
          <mxGeometry relative="1" as="geometry">
            <mxPoint x="380" y="680.5" as="sourcePoint" />
            <mxPoint x="540" y="680" as="targetPoint" />
          </mxGeometry>
        </mxCell>
        <mxCell id="iXwxiYTci3UaNsQkCAsQ-10" value="TCP" style="edgeLabel;resizable=0;html=1;align=center;verticalAlign=middle;" connectable="0" vertex="1" parent="iXwxiYTci3UaNsQkCAsQ-9">
          <mxGeometry relative="1" as="geometry" />
        </mxCell>
        <mxCell id="iXwxiYTci3UaNsQkCAsQ-11" value="client" style="edgeLabel;resizable=0;html=1;align=left;verticalAlign=bottom;" connectable="0" vertex="1" parent="iXwxiYTci3UaNsQkCAsQ-9">
          <mxGeometry x="-1" relative="1" as="geometry" />
        </mxCell>
        <mxCell id="iXwxiYTci3UaNsQkCAsQ-12" style="edgeStyle=orthogonalEdgeStyle;rounded=0;orthogonalLoop=1;jettySize=auto;html=1;exitX=1;exitY=0.5;exitDx=0;exitDy=0;exitPerimeter=0;entryX=0;entryY=0.5;entryDx=0;entryDy=0;entryPerimeter=0;" edge="1" parent="1" source="iXwxiYTci3UaNsQkCAsQ-13" target="iXwxiYTci3UaNsQkCAsQ-16">
          <mxGeometry relative="1" as="geometry" />
        </mxCell>
        <mxCell id="iXwxiYTci3UaNsQkCAsQ-13" value="job" style="strokeWidth=2;html=1;shape=mxgraph.flowchart.multi-document;whiteSpace=wrap;" vertex="1" parent="1">
          <mxGeometry x="220" y="650" width="88" height="60" as="geometry" />
        </mxCell>
        <mxCell id="iXwxiYTci3UaNsQkCAsQ-14" value="&lt;div&gt;Sql&lt;/div&gt;" style="ellipse;shape=doubleEllipse;whiteSpace=wrap;html=1;aspect=fixed;" vertex="1" parent="1">
          <mxGeometry y="640" width="80" height="80" as="geometry" />
        </mxCell>
        <mxCell id="iXwxiYTci3UaNsQkCAsQ-15" value="mnode-write" style="ellipse;whiteSpace=wrap;html=1;aspect=fixed;" vertex="1" parent="1">
          <mxGeometry x="530" y="640" width="80" height="80" as="geometry" />
        </mxCell>
        <mxCell id="iXwxiYTci3UaNsQkCAsQ-16" value="task" style="strokeWidth=2;html=1;shape=mxgraph.flowchart.multi-document;whiteSpace=wrap;" vertex="1" parent="1">
          <mxGeometry x="352" y="650" width="88" height="60" as="geometry" />
        </mxCell>
        <mxCell id="iXwxiYTci3UaNsQkCAsQ-17" value="" style="endArrow=classic;html=1;rounded=0;" edge="1" parent="1" source="iXwxiYTci3UaNsQkCAsQ-14" target="iXwxiYTci3UaNsQkCAsQ-13">
          <mxGeometry relative="1" as="geometry">
            <mxPoint x="460" y="550" as="sourcePoint" />
            <mxPoint x="620" y="550" as="targetPoint" />
          </mxGeometry>
        </mxCell>
        <mxCell id="iXwxiYTci3UaNsQkCAsQ-18" value="sql engine operator" style="edgeLabel;resizable=0;html=1;align=center;verticalAlign=middle;" connectable="0" vertex="1" parent="iXwxiYTci3UaNsQkCAsQ-17">
          <mxGeometry relative="1" as="geometry" />
        </mxCell>
        <mxCell id="iXwxiYTci3UaNsQkCAsQ-19" value="shell" style="edgeLabel;resizable=0;html=1;align=left;verticalAlign=bottom;" connectable="0" vertex="1" parent="iXwxiYTci3UaNsQkCAsQ-17">
          <mxGeometry x="-1" relative="1" as="geometry" />
        </mxCell>
        <mxCell id="iXwxiYTci3UaNsQkCAsQ-21" value="" style="endArrow=classic;html=1;rounded=1;edgeStyle=elbowEdgeStyle;" edge="1" parent="1" source="iXwxiYTci3UaNsQkCAsQ-15" target="iXwxiYTci3UaNsQkCAsQ-30">
          <mxGeometry relative="1" as="geometry">
            <mxPoint x="730" y="670" as="sourcePoint" />
            <mxPoint x="670" y="550" as="targetPoint" />
          </mxGeometry>
        </mxCell>
        <mxCell id="iXwxiYTci3UaNsQkCAsQ-22" value="&lt;div style=&quot;color: rgb(171, 178, 191); background-color: rgb(40, 44, 52); font-family: &amp;quot;Cascadia Code&amp;quot;, &amp;quot;Cascadia Code&amp;quot;, monospace, &amp;quot;Droid Sans Mono&amp;quot;, &amp;quot;monospace&amp;quot;, monospace; font-weight: normal; font-size: 16px; line-height: 22px;&quot;&gt;&lt;div&gt;mndProcessCreateStreamReq&lt;/div&gt;&lt;/div&gt;" style="edgeLabel;resizable=0;html=1;align=center;verticalAlign=middle;" connectable="0" vertex="1" parent="iXwxiYTci3UaNsQkCAsQ-21">
          <mxGeometry relative="1" as="geometry" />
        </mxCell>
        <mxCell id="iXwxiYTci3UaNsQkCAsQ-23" value="Source" style="edgeLabel;resizable=0;html=1;align=left;verticalAlign=bottom;" connectable="0" vertex="1" parent="iXwxiYTci3UaNsQkCAsQ-21">
          <mxGeometry x="-1" relative="1" as="geometry" />
        </mxCell>
        <mxCell id="iXwxiYTci3UaNsQkCAsQ-24" value="Target" style="edgeLabel;resizable=0;html=1;align=right;verticalAlign=bottom;" connectable="0" vertex="1" parent="iXwxiYTci3UaNsQkCAsQ-21">
          <mxGeometry x="1" relative="1" as="geometry" />
        </mxCell>
        <mxCell id="iXwxiYTci3UaNsQkCAsQ-26" value="" style="endArrow=classic;html=1;rounded=1;edgeStyle=elbowEdgeStyle;" edge="1" parent="1" source="iXwxiYTci3UaNsQkCAsQ-33" target="iXwxiYTci3UaNsQkCAsQ-6">
          <mxGeometry relative="1" as="geometry">
            <mxPoint x="590" y="770" as="sourcePoint" />
            <mxPoint x="1010" y="540" as="targetPoint" />
          </mxGeometry>
        </mxCell>
        <mxCell id="iXwxiYTci3UaNsQkCAsQ-27" value="&lt;div style=&quot;color: rgb(171, 178, 191); background-color: rgb(40, 44, 52); font-family: &amp;quot;Cascadia Code&amp;quot;, &amp;quot;Cascadia Code&amp;quot;, monospace, &amp;quot;Droid Sans Mono&amp;quot;, &amp;quot;monospace&amp;quot;, monospace; font-weight: normal; font-size: 16px; line-height: 22px;&quot;&gt;&lt;div&gt;TDMT_VND_CREATE_STB&lt;/div&gt;&lt;/div&gt;" style="edgeLabel;resizable=0;html=1;align=center;verticalAlign=middle;" connectable="0" vertex="1" parent="iXwxiYTci3UaNsQkCAsQ-26">
          <mxGeometry relative="1" as="geometry" />
        </mxCell>
        <mxCell id="iXwxiYTci3UaNsQkCAsQ-29" value="&lt;div style=&quot;color: rgb(171, 178, 191); background-color: rgb(40, 44, 52); font-family: &amp;quot;Cascadia Code&amp;quot;, &amp;quot;Cascadia Code&amp;quot;, monospace, &amp;quot;Droid Sans Mono&amp;quot;, &amp;quot;monospace&amp;quot;, monospace; font-weight: normal; font-size: 16px; line-height: 22px;&quot;&gt;&lt;div&gt;vnodeProcessCreateStbReq&lt;/div&gt;&lt;/div&gt;" style="edgeLabel;resizable=0;html=1;align=right;verticalAlign=bottom;" connectable="0" vertex="1" parent="iXwxiYTci3UaNsQkCAsQ-26">
          <mxGeometry x="1" relative="1" as="geometry" />
        </mxCell>
        <mxCell id="iXwxiYTci3UaNsQkCAsQ-30" value="db" style="shape=cylinder3;whiteSpace=wrap;html=1;boundedLbl=1;backgroundOutline=1;size=15;" vertex="1" parent="1">
          <mxGeometry x="510" y="810" width="120" height="60" as="geometry" />
        </mxCell>
        <mxCell id="iXwxiYTci3UaNsQkCAsQ-33" value="task" style="strokeWidth=2;html=1;shape=mxgraph.flowchart.multi-document;whiteSpace=wrap;" vertex="1" parent="1">
          <mxGeometry x="760" y="530" width="88" height="60" as="geometry" />
        </mxCell>
        <mxCell id="iXwxiYTci3UaNsQkCAsQ-35" value="" style="endArrow=classic;html=1;rounded=1;edgeStyle=elbowEdgeStyle;" edge="1" parent="1" source="iXwxiYTci3UaNsQkCAsQ-15" target="iXwxiYTci3UaNsQkCAsQ-33">
          <mxGeometry relative="1" as="geometry">
            <mxPoint x="570" y="780" as="sourcePoint" />
            <mxPoint x="730" y="780" as="targetPoint" />
          </mxGeometry>
        </mxCell>
        <mxCell id="iXwxiYTci3UaNsQkCAsQ-36" value="&lt;div style=&quot;color: rgb(171, 178, 191); background-color: rgb(40, 44, 52); font-family: &amp;quot;Cascadia Code&amp;quot;, &amp;quot;Cascadia Code&amp;quot;, monospace, &amp;quot;Droid Sans Mono&amp;quot;, &amp;quot;monospace&amp;quot;, monospace; font-weight: normal; font-size: 16px; line-height: 22px;&quot;&gt;&lt;div&gt;tNewSStreamTask&lt;/div&gt;&lt;/div&gt;" style="edgeLabel;resizable=0;html=1;align=center;verticalAlign=middle;" connectable="0" vertex="1" parent="iXwxiYTci3UaNsQkCAsQ-35">
          <mxGeometry relative="1" as="geometry" />
        </mxCell>
        <mxCell id="iXwxiYTci3UaNsQkCAsQ-37" value="&lt;div style=&quot;color: rgb(171, 178, 191); background-color: rgb(40, 44, 52); font-family: &amp;quot;Cascadia Code&amp;quot;, &amp;quot;Cascadia Code&amp;quot;, monospace, &amp;quot;Droid Sans Mono&amp;quot;, &amp;quot;monospace&amp;quot;, monospace; font-weight: normal; font-size: 16px; line-height: 22px;&quot;&gt;&lt;div&gt;mndScheduleStream&lt;/div&gt;&lt;/div&gt;" style="edgeLabel;resizable=0;html=1;align=left;verticalAlign=bottom;" connectable="0" vertex="1" parent="iXwxiYTci3UaNsQkCAsQ-35">
          <mxGeometry x="-1" relative="1" as="geometry" />
        </mxCell>
        <mxCell id="iXwxiYTci3UaNsQkCAsQ-38" value="Target" style="edgeLabel;resizable=0;html=1;align=right;verticalAlign=bottom;" connectable="0" vertex="1" parent="iXwxiYTci3UaNsQkCAsQ-35">
          <mxGeometry x="1" relative="1" as="geometry" />
        </mxCell>
        <mxCell id="iXwxiYTci3UaNsQkCAsQ-39" value="&lt;div style=&quot;color: rgb(171, 178, 191); background-color: rgb(40, 44, 52); font-family: &amp;quot;Cascadia Code&amp;quot;, &amp;quot;Cascadia Code&amp;quot;, monospace, &amp;quot;Droid Sans Mono&amp;quot;, &amp;quot;monospace&amp;quot;, monospace; font-weight: normal; font-size: 16px; line-height: 22px;&quot;&gt;&lt;div&gt;&lt;span style=&quot;color: #abb2bf;&quot;&gt;vnodeProcessWriteMsg&lt;/span&gt;&lt;/div&gt;&lt;/div&gt;" style="edgeLabel;resizable=0;html=1;align=right;verticalAlign=bottom;" connectable="0" vertex="1" parent="1">
          <mxGeometry x="1050" y="560" as="geometry" />
        </mxCell>
        <mxCell id="iXwxiYTci3UaNsQkCAsQ-40" value="" style="endArrow=classic;html=1;rounded=1;edgeStyle=elbowEdgeStyle;" edge="1" parent="1" source="iXwxiYTci3UaNsQkCAsQ-6">
          <mxGeometry relative="1" as="geometry">
            <mxPoint x="1020" y="790" as="sourcePoint" />
            <mxPoint x="1040" y="870" as="targetPoint" />
          </mxGeometry>
        </mxCell>
        <mxCell id="iXwxiYTci3UaNsQkCAsQ-41" value="&lt;div style=&quot;color: rgb(171, 178, 191); background-color: rgb(40, 44, 52); font-family: &amp;quot;Cascadia Code&amp;quot;, &amp;quot;Cascadia Code&amp;quot;, monospace, &amp;quot;Droid Sans Mono&amp;quot;, &amp;quot;monospace&amp;quot;, monospace; font-weight: normal; font-size: 16px; line-height: 22px;&quot;&gt;&lt;div&gt;tqProcessTaskDeployReq&lt;/div&gt;&lt;/div&gt;" style="edgeLabel;resizable=0;html=1;align=center;verticalAlign=middle;" connectable="0" vertex="1" parent="iXwxiYTci3UaNsQkCAsQ-40">
          <mxGeometry relative="1" as="geometry" />
        </mxCell>
        <mxCell id="iXwxiYTci3UaNsQkCAsQ-42" value="&lt;div style=&quot;color: rgb(171, 178, 191); background-color: rgb(40, 44, 52); font-family: &amp;quot;Cascadia Code&amp;quot;, &amp;quot;Cascadia Code&amp;quot;, monospace, &amp;quot;Droid Sans Mono&amp;quot;, &amp;quot;monospace&amp;quot;, monospace; font-weight: normal; font-size: 16px; line-height: 22px;&quot;&gt;&lt;div&gt;TDMT_STREAM_TASK_DEPLOY&lt;/div&gt;&lt;/div&gt;" style="edgeLabel;resizable=0;html=1;align=left;verticalAlign=bottom;" connectable="0" vertex="1" parent="iXwxiYTci3UaNsQkCAsQ-40">
          <mxGeometry x="-1" relative="1" as="geometry" />
        </mxCell>
        <mxCell id="iXwxiYTci3UaNsQkCAsQ-43" value="Target" style="edgeLabel;resizable=0;html=1;align=right;verticalAlign=bottom;" connectable="0" vertex="1" parent="iXwxiYTci3UaNsQkCAsQ-40">
          <mxGeometry x="1" relative="1" as="geometry" />
        </mxCell>
        <mxCell id="iXwxiYTci3UaNsQkCAsQ-44" value="&lt;div style=&quot;color: rgb(171, 178, 191); background-color: rgb(40, 44, 52); font-family: &amp;quot;Cascadia Code&amp;quot;, &amp;quot;Cascadia Code&amp;quot;, monospace, &amp;quot;Droid Sans Mono&amp;quot;, &amp;quot;monospace&amp;quot;, monospace; font-weight: normal; font-size: 16px; line-height: 22px;&quot;&gt;&lt;div&gt;funcMgtBuiltins -val&lt;br&gt;&lt;/div&gt;&lt;/div&gt;" style="verticalLabelPosition=bottom;verticalAlign=top;html=1;shape=mxgraph.basic.layered_rect;dx=10;outlineConnect=0;whiteSpace=wrap;" vertex="1" parent="1">
          <mxGeometry x="3510" y="1090" width="160" height="60" as="geometry" />
        </mxCell>
        <mxCell id="iXwxiYTci3UaNsQkCAsQ-47" value="&lt;p style=&quot;margin:0px;margin-top:4px;text-align:center;&quot;&gt;&lt;b&gt;STQ&lt;/b&gt;&lt;/p&gt;&lt;hr size=&quot;1&quot;&gt;&lt;p style=&quot;margin:0px;margin-left:4px;&quot;&gt;+ SStreamMeta&lt;br&gt;&lt;/p&gt;&lt;hr size=&quot;1&quot;&gt;" style="verticalAlign=top;align=left;overflow=fill;fontSize=12;fontFamily=Helvetica;html=1;whiteSpace=wrap;" vertex="1" parent="1">
          <mxGeometry x="980" y="900" width="120" height="60" as="geometry" />
        </mxCell>
        <mxCell id="iXwxiYTci3UaNsQkCAsQ-48" value="" style="endArrow=classic;html=1;rounded=1;edgeStyle=elbowEdgeStyle;" edge="1" parent="1">
          <mxGeometry relative="1" as="geometry">
            <mxPoint x="1090" y="1010" as="sourcePoint" />
            <mxPoint x="1560" y="890" as="targetPoint" />
          </mxGeometry>
        </mxCell>
        <mxCell id="iXwxiYTci3UaNsQkCAsQ-49" value="&lt;div style=&quot;color: rgb(171, 178, 191); background-color: rgb(40, 44, 52); font-family: &amp;quot;Cascadia Code&amp;quot;, &amp;quot;Cascadia Code&amp;quot;, monospace, &amp;quot;Droid Sans Mono&amp;quot;, &amp;quot;monospace&amp;quot;, monospace; font-weight: normal; font-size: 16px; line-height: 22px;&quot;&gt;&lt;div&gt;streamMetaAddTask&lt;/div&gt;&lt;/div&gt;" style="edgeLabel;resizable=0;html=1;align=center;verticalAlign=middle;" connectable="0" vertex="1" parent="iXwxiYTci3UaNsQkCAsQ-48">
          <mxGeometry relative="1" as="geometry" />
        </mxCell>
        <mxCell id="iXwxiYTci3UaNsQkCAsQ-50" value="Source" style="edgeLabel;resizable=0;html=1;align=left;verticalAlign=bottom;" connectable="0" vertex="1" parent="iXwxiYTci3UaNsQkCAsQ-48">
          <mxGeometry x="-1" relative="1" as="geometry" />
        </mxCell>
        <mxCell id="iXwxiYTci3UaNsQkCAsQ-52" value="Process Bar" style="swimlane;childLayout=stackLayout;horizontal=1;fillColor=none;horizontalStack=1;resizeParent=1;resizeParentMax=0;resizeLast=0;collapsible=0;strokeColor=none;stackBorder=10;stackSpacing=-12;resizable=1;align=center;points=[];whiteSpace=wrap;html=1;" vertex="1" parent="1">
          <mxGeometry x="1420" y="750" width="730" height="100" as="geometry" />
        </mxCell>
        <mxCell id="iXwxiYTci3UaNsQkCAsQ-53" value="&lt;div style=&quot;color: rgb(171, 178, 191); background-color: rgb(40, 44, 52); font-family: &amp;quot;Cascadia Code&amp;quot;, &amp;quot;Cascadia Code&amp;quot;, monospace, &amp;quot;Droid Sans Mono&amp;quot;, &amp;quot;monospace&amp;quot;, monospace; font-weight: normal; font-size: 16px; line-height: 22px;&quot;&gt;&lt;div&gt;streamMetaAddTask&lt;/div&gt;&lt;/div&gt;" style="shape=step;perimeter=stepPerimeter;fixedSize=1;points=[];whiteSpace=wrap;html=1;" vertex="1" parent="iXwxiYTci3UaNsQkCAsQ-52">
          <mxGeometry x="10" y="33" width="220" height="57" as="geometry" />
        </mxCell>
        <mxCell id="iXwxiYTci3UaNsQkCAsQ-54" value="&lt;div style=&quot;color: rgb(171, 178, 191); background-color: rgb(40, 44, 52); font-family: &amp;quot;Cascadia Code&amp;quot;, &amp;quot;Cascadia Code&amp;quot;, monospace, &amp;quot;Droid Sans Mono&amp;quot;, &amp;quot;monospace&amp;quot;, monospace; font-weight: normal; font-size: 16px; line-height: 22px;&quot;&gt;&lt;div&gt;tqExpandTask&lt;/div&gt;&lt;/div&gt;" style="shape=step;perimeter=stepPerimeter;fixedSize=1;points=[];whiteSpace=wrap;html=1;" vertex="1" parent="iXwxiYTci3UaNsQkCAsQ-52">
          <mxGeometry x="218" y="33" width="212" height="57" as="geometry" />
        </mxCell>
        <mxCell id="iXwxiYTci3UaNsQkCAsQ-55" value="&lt;div style=&quot;color: rgb(171, 178, 191); background-color: rgb(40, 44, 52); font-family: &amp;quot;Cascadia Code&amp;quot;, &amp;quot;Cascadia Code&amp;quot;, monospace, &amp;quot;Droid Sans Mono&amp;quot;, &amp;quot;monospace&amp;quot;, monospace; font-weight: normal; font-size: 16px; line-height: 22px;&quot;&gt;&lt;div&gt;qCreateStreamExecTaskInfo&lt;/div&gt;&lt;/div&gt;" style="shape=step;perimeter=stepPerimeter;fixedSize=1;points=[];whiteSpace=wrap;html=1;" vertex="1" parent="iXwxiYTci3UaNsQkCAsQ-52">
          <mxGeometry x="418" y="33" width="302" height="57" as="geometry" />
        </mxCell>
        <mxCell id="iXwxiYTci3UaNsQkCAsQ-57" value="" style="endArrow=classic;html=1;rounded=0;" edge="1" parent="1">
          <mxGeometry relative="1" as="geometry">
            <mxPoint x="1650" y="1010" as="sourcePoint" />
            <mxPoint x="2180" y="1040" as="targetPoint" />
          </mxGeometry>
        </mxCell>
        <mxCell id="iXwxiYTci3UaNsQkCAsQ-58" value="&lt;div style=&quot;color: rgb(171, 178, 191); background-color: rgb(40, 44, 52); font-family: &amp;quot;Cascadia Code&amp;quot;, &amp;quot;Cascadia Code&amp;quot;, monospace, &amp;quot;Droid Sans Mono&amp;quot;, &amp;quot;monospace&amp;quot;, monospace; font-weight: normal; font-size: 16px; line-height: 22px;&quot;&gt;&lt;div&gt;qCreateExecTask&lt;/div&gt;&lt;/div&gt;" style="edgeLabel;resizable=0;html=1;align=center;verticalAlign=middle;" connectable="0" vertex="1" parent="iXwxiYTci3UaNsQkCAsQ-57">
          <mxGeometry relative="1" as="geometry" />
        </mxCell>
        <mxCell id="iXwxiYTci3UaNsQkCAsQ-59" value="&lt;div style=&quot;color: rgb(171, 178, 191); background-color: rgb(40, 44, 52); font-family: &amp;quot;Cascadia Code&amp;quot;, &amp;quot;Cascadia Code&amp;quot;, monospace, &amp;quot;Droid Sans Mono&amp;quot;, &amp;quot;monospace&amp;quot;, monospace; font-weight: normal; font-size: 16px; line-height: 22px;&quot;&gt;&lt;div&gt;QUERY_NODE_PHYSICAL_PLAN_STREAM_SCAN&lt;/div&gt;&lt;/div&gt;" style="edgeLabel;resizable=0;html=1;align=left;verticalAlign=bottom;" connectable="0" vertex="1" parent="iXwxiYTci3UaNsQkCAsQ-57">
          <mxGeometry x="-1" relative="1" as="geometry" />
        </mxCell>
        <mxCell id="iXwxiYTci3UaNsQkCAsQ-60" value="Target" style="edgeLabel;resizable=0;html=1;align=right;verticalAlign=bottom;" connectable="0" vertex="1" parent="iXwxiYTci3UaNsQkCAsQ-57">
          <mxGeometry x="1" relative="1" as="geometry" />
        </mxCell>
        <mxCell id="iXwxiYTci3UaNsQkCAsQ-64" value="&lt;div style=&quot;color: rgb(171, 178, 191); background-color: rgb(40, 44, 52); font-family: &amp;quot;Cascadia Code&amp;quot;, &amp;quot;Cascadia Code&amp;quot;, monospace, &amp;quot;Droid Sans Mono&amp;quot;, &amp;quot;monospace&amp;quot;, monospace; font-weight: normal; font-size: 16px; line-height: 22px;&quot;&gt;&lt;div&gt;createExecTaskInfoImpl&lt;/div&gt;&lt;/div&gt;" style="rounded=0;whiteSpace=wrap;html=1;" vertex="1" parent="1">
          <mxGeometry x="2170" y="1010" width="300" height="60" as="geometry" />
        </mxCell>
        <mxCell id="iXwxiYTci3UaNsQkCAsQ-65" value="&lt;div style=&quot;color: rgb(171, 178, 191); background-color: rgb(40, 44, 52); font-family: &amp;quot;Cascadia Code&amp;quot;, &amp;quot;Cascadia Code&amp;quot;, monospace, &amp;quot;Droid Sans Mono&amp;quot;, &amp;quot;monospace&amp;quot;, monospace; font-weight: normal; font-size: 16px; line-height: 22px;&quot;&gt;&lt;div&gt;createOperatorTree&lt;/div&gt;&lt;/div&gt;" style="rounded=0;whiteSpace=wrap;html=1;" vertex="1" parent="1">
          <mxGeometry x="2480" y="1000" width="300" height="60" as="geometry" />
        </mxCell>
        <mxCell id="iXwxiYTci3UaNsQkCAsQ-66" style="edgeStyle=orthogonalEdgeStyle;rounded=0;orthogonalLoop=1;jettySize=auto;html=1;exitX=0.75;exitY=0;exitDx=0;exitDy=0;" edge="1" parent="1" source="iXwxiYTci3UaNsQkCAsQ-65" target="iXwxiYTci3UaNsQkCAsQ-65">
          <mxGeometry relative="1" as="geometry" />
        </mxCell>
        <mxCell id="iXwxiYTci3UaNsQkCAsQ-67" value="&lt;div style=&quot;color: rgb(171, 178, 191); background-color: rgb(40, 44, 52); font-family: &amp;quot;Cascadia Code&amp;quot;, &amp;quot;Cascadia Code&amp;quot;, monospace, &amp;quot;Droid Sans Mono&amp;quot;, &amp;quot;monospace&amp;quot;, monospace; font-weight: normal; font-size: 16px; line-height: 22px;&quot;&gt;&lt;div&gt;createTableScanOperatorInfo&lt;/div&gt;&lt;/div&gt;" style="rounded=0;whiteSpace=wrap;html=1;" vertex="1" parent="1">
          <mxGeometry x="2840" y="1000" width="300" height="60" as="geometry" />
        </mxCell>
        <mxCell id="iXwxiYTci3UaNsQkCAsQ-68" value="&lt;div style=&quot;color: rgb(171, 178, 191); background-color: rgb(40, 44, 52); font-family: &amp;quot;Cascadia Code&amp;quot;, &amp;quot;Cascadia Code&amp;quot;, monospace, &amp;quot;Droid Sans Mono&amp;quot;, &amp;quot;monospace&amp;quot;, monospace; font-weight: normal; font-size: 16px; line-height: 22px;&quot;&gt;&lt;div&gt;createSqlFunctionCtx&lt;/div&gt;&lt;/div&gt;" style="rounded=0;whiteSpace=wrap;html=1;" vertex="1" parent="1">
          <mxGeometry x="3160" y="1000" width="300" height="60" as="geometry" />
        </mxCell>
        <mxCell id="iXwxiYTci3UaNsQkCAsQ-70" value="&lt;div style=&quot;color: rgb(171, 178, 191); background-color: rgb(40, 44, 52); font-family: &amp;quot;Cascadia Code&amp;quot;, &amp;quot;Cascadia Code&amp;quot;, monospace, &amp;quot;Droid Sans Mono&amp;quot;, &amp;quot;monospace&amp;quot;, monospace; font-weight: normal; font-size: 16px; line-height: 22px;&quot;&gt;&lt;div&gt;fmGetFuncExecFuncs&lt;/div&gt;&lt;/div&gt;" style="rounded=0;whiteSpace=wrap;html=1;" vertex="1" parent="1">
          <mxGeometry x="3470" y="1000" width="300" height="60" as="geometry" />
        </mxCell>
      </root>
    </mxGraphModel>
  </diagram>
</mxfile>
